# xmcd CD database file
#
# Track frame offsets:
#	187
#	16365
#	39965
#	62262
#	85197
#	103765
#	123255
#	144625
#	164977
#
# Disc length: 2475 seconds
#
# Revision: 0
# Processed by: cddbd v1.5.1PL2 Copyright (c) Steve Scherf et al.
# Submitted via: CDex 1.51
#
DISCID=7209a909
DTITLE=須藤薫 - CONTINUE
DYEAR=1990
DGENRE=JPop
TTITLE0=マンションの鍵貸します
TTITLE1=Dear girl friend
TTITLE2=真夜中のスコール
TTITLE3=蒼い夏
TTITLE4=聞こえないさよなら
TTITLE5=心の休日
TTITLE6=コンタクト・レンズの街角
TTITLE7=Nose Gay
TTITLE8=Continue
EXTD=YEAR: 1990
EXTT0=
EXTT1=
EXTT2=
EXTT3=
EXTT4=
EXTT5=
EXTT6=
EXTT7=
EXTT8=
PLAYORDER=
